<svg aria-hidden="true" style="position: absolute; width: 0; height: 0; overflow: hidden;" version="1.1" xmlns="http://www.w3.org/2000/svg" xmlns:xlink="http://www.w3.org/1999/xlink">
<defs>
<symbol id="android_icon" viewBox="0 0 29 32">
<path   d="M28.384 12.16v7.89c0 1.085-0.887 1.972-1.972 1.972-1.088-0.003-1.969-0.884-1.972-1.971v-7.892c0-1.084 0.887-1.971 1.971-1.971 1.087 0 1.974 0.887 1.974 1.971zM4.714 12.16v7.89c0 1.085-0.887 1.972-1.974 1.972-1.087-0.004-1.968-0.884-1.971-1.971v-7.892c0-1.084 0.887-1.971 1.971-1.971 1.087 0 1.974 0.887 1.974 1.971zM5.7 12.16h17.754v10.849c-0.001 1.634-1.325 2.958-2.959 2.958h-0.986v3.946c0 1.084-0.888 1.971-1.974 1.971-1.087-0.004-1.968-0.884-1.971-1.971v-3.947h-1.974v3.946c0 1.084-0.887 1.971-1.972 1.971s-1.971-0.887-1.971-1.971v-3.946h-0.987c-1.634 0-2.959-1.324-2.959-2.958v-0zM23.398 10.189h-17.644c0.366-3.175 2.358-5.811 5.111-7.081l0.055-0.023-1.248-2.4c-0.021-0.036-0.034-0.079-0.034-0.125 0-0.136 0.111-0.247 0.247-0.247 0.099 0 0.184 0.058 0.224 0.142l0.001 0.002 1.267 2.435c0.946-0.377 2.043-0.595 3.191-0.595 0.003 0 0.006 0 0.009 0h-0c1.126 0 2.205 0.211 3.199 0.595l1.267-2.435c0.044-0.072 0.122-0.119 0.211-0.119 0.136 0 0.247 0.111 0.247 0.247 0 0.035-0.008 0.069-0.021 0.1l0.001-0.002-1.249 2.399c2.808 1.293 4.8 3.929 5.162 7.063l0.004 0.041zM12.061 7.228c0-0.013 0.001-0.028 0.001-0.043 0-0.79-0.641-1.431-1.431-1.431s-1.431 0.641-1.431 1.431c0 0.015 0 0.030 0.001 0.045l-0-0.002c0.024 0.772 0.655 1.388 1.43 1.388s1.407-0.617 1.43-1.386l0-0.002zM19.951 7.228c0-0.013 0.001-0.028 0.001-0.043 0-0.79-0.641-1.431-1.431-1.431s-1.431 0.641-1.431 1.431c0 0.015 0 0.030 0.001 0.045l-0-0.002c0.024 0.772 0.655 1.388 1.43 1.388s1.407-0.617 1.43-1.386l0-0.002z"></path>
</symbol>
<symbol id="apple_icon" viewBox="0 0 26 32">
<path d="M24.714 23.14c-0.037 0.107-0.639 2.178-2.102 4.316-1.265 1.85-2.576 3.691-4.644 3.728-2.033 0.037-2.687-1.205-5.009-1.205-2.324 0-3.051 1.168-4.972 1.243-1.994 0.074-3.515-1.998-4.79-3.84-2.608-3.766-4.598-10.646-1.924-15.29 1.328-2.306 3.703-3.766 6.278-3.803 1.959-0.038 3.812 1.318 5.008 1.318 1.199 0 3.446-1.631 5.809-1.391 0.99 0.041 3.766 0.399 5.551 3.008-0.143 0.090-3.316 1.934-3.278 5.777 0.041 4.591 4.027 6.117 4.074 6.138zM12.32 7.872c-0.23-1.744 0.628-3.559 1.612-4.697 1.093-1.282 2.943-2.236 4.468-2.298 0.197 1.778-0.519 3.561-1.578 4.846-1.061 1.281-2.799 2.281-4.502 2.149z"></path>
</symbol>
<symbol id="comment_icon" viewBox="0 0 34 32">
<path   d="M33.935 2.133v21.333c0 1.173-0.955 2.133-2.121 2.133h-14.581l-8.745 6.4v-6.4h-6.361c-1.166 0-2.121-0.96-2.121-2.133v-21.333c0-1.173 0.955-2.133 2.121-2.133h29.687c1.166 0 2.121 0.96 2.121 2.133zM29.693 4.267h-25.447v17.067h25.447z"></path>
</symbol>
<symbol id="layers_icon" viewBox="0 0 32 32">
<path   d="M0.005 16l6.123-2 9.872 4.936 10.372-5.061 5.623 2.124-15.995 7.998zM0.005 8.002l15.995-7.997 15.995 7.997-15.995 7.997zM16 26.934l10.372-5.061 5.623 2.124-15.995 7.998-15.995-7.998 6.123-2z"></path>
</symbol>
<symbol id="message_icon" viewBox="0 0 32 32">
<path   d="M31.995 21.998v-7.997c0-2-2-3.999-3.999-3.999h-2v1.999c0 3.083-2.913 5.998-5.998 5.998h-9.169l-2.827 2.827v1.172c0 2 2 3.999 3.999 3.999h9.996l5.998 5.998v-5.998c2 0 3.999-2 3.999-3.999zM23.997 12.001v-7.997c0-2-1.999-3.999-3.999-3.999h-15.995c-2 0-3.999 2-3.999 3.999v7.997c-0 2 1.999 3.999 3.999 3.999v5.998l5.999-5.998h9.997c2 0 3.999-2 3.999-3.999z"></path>
</symbol>
<symbol id="mobile_icon" viewBox="0 0 22 32">
<path   d="M18.829 31.995h-15.86c-1.638 0-2.974-1.345-2.974-2.999v-25.992c0.001-1.653 1.337-2.999 2.974-2.999h15.86c1.642 0 2.974 1.346 2.974 2.999v25.992c0 1.654-1.332 2.999-2.974 2.999zM19.82 3.004c0-0.001 0-0.002 0-0.002 0-0.549-0.443-0.994-0.991-0.997h-15.861c-0.548 0.003-0.991 0.449-0.991 0.997 0 0.001 0 0.002 0 0.002v-0 25.992c0 0.001 0 0.002 0 0.003 0 0.549 0.443 0.994 0.991 0.997h15.861c0.548-0.003 0.991-0.449 0.991-0.997 0-0.001 0-0.002 0-0.003v0zM3.96 4.004h13.876v21.993h-13.876zM10.898 26.996c0.548 0.003 0.992 0.448 0.992 0.997 0 0.001 0 0.002 0 0.002v-0c0 0.001 0 0.002 0 0.003 0 0.549-0.443 0.994-0.991 0.997h-0c-0.548-0.003-0.991-0.449-0.991-0.997 0-0.001 0-0.002 0-0.003v0c0-0.001 0-0.002 0-0.002 0-0.549 0.443-0.994 0.991-0.997h0z"></path>
</symbol>
<symbol id="play_icon" viewBox="0 0 28 32">
<path  d="M26.872 14.042l-8.169-4.828c23.412 12.914 21.245 11.617 19.077 10.322l-25.711-14.237-8.47-4.828c-1.821-1.077-3.612-0.212-3.612 1.928v27.201c0 2.133 1.791 3.006 3.612 1.928l8.32-4.826c1.829-1.079 4.888-2.839 6.709-3.916l8.207-4.827c1.821-1.078 1.859-2.839 0.038-3.915z"></path>
</symbol>
<symbol id="arrow" viewBox="0 0 19 32">
<path  d="M18.667 32h-3.733l-14.933-16 14.933-16h3.733l-14.933 16z"></path>
</symbol>
</defs>
</svg>
